<svg xmlns="http://www.w3.org/2000/svg" viewBox="0 0 166.27 32.47"><defs><style>.cls-1{fill:#fff;}</style></defs><title>Middel 13</title><g id="Laag_2" data-name="Laag 2"><g id="Layer_1" data-name="Layer 1"><path class="cls-1" d="M91.4,10.79a6.93,6.93,0,0,0-6.48,2.69V12.8h0V0L78.3.8V32h6.62V30.15a12.34,12.34,0,0,0,2.77,1.76c3.86,1.39,8.94.26,10.72-4.9a17.18,17.18,0,0,0,.25-10A7.72,7.72,0,0,0,91.4,10.79Zm1,13.51a3.4,3.4,0,0,1-3.87,3A4.55,4.55,0,0,1,87.2,27,4.53,4.53,0,0,1,85,23.64h0c-.11-1.46-.22-4.52.49-6a3.4,3.4,0,0,1,3.07-1.76,3.35,3.35,0,0,1,3.79,2.94A18.71,18.71,0,0,1,92.39,24.3Z"/><path class="cls-1" d="M114.86,11.18a13.21,13.21,0,0,0-6.92,0,8.32,8.32,0,0,0-6.48,6.55,22.23,22.23,0,0,0-.38,5.82,8.91,8.91,0,0,0,7.23,8.56l.18,0h0l.49.08.17,0h0a6.88,6.88,0,0,0,.72.08,12.77,12.77,0,0,0,2.77,0h.15a9.08,9.08,0,0,0,8.68-7.24,15.56,15.56,0,0,0,0-7A8.66,8.66,0,0,0,114.86,11.18ZM115.14,24c0,.13,0,.27-.08.41a3.74,3.74,0,0,1-7.37-.4,25.78,25.78,0,0,1,0-4.48,3.77,3.77,0,0,1,7.41-.79A20.18,20.18,0,0,1,115.14,24Z"/><path class="cls-1" d="M15.52,11.07H10.8V7.93c.34-3,5.25-2.41,5.25-2.41V.42h0c-.17,0-9.75-2.32-11.66,5h0v0a37.55,37.55,0,0,0-.28,5.62H0v5.58H4.35v15.2h6.33V16.65h4.84l.55-5.58Z"/><path class="cls-1" d="M30.62,13.74l-.22-.24h0l0,0a1.94,1.94,0,0,0-.16-.16h0c-1.49-1.52-2.05-1.89-3.22-2.24a8.09,8.09,0,0,0-10.25,5.55,17.87,17.87,0,0,0-.36,8.44c1.08,6.09,5.61,8.13,10.43,7.13a6.23,6.23,0,0,0,3.6-2.52,1.58,1.58,0,0,0,.21-.33V32h6.17V11.09H30.62v2.65Zm-.54,10.53a3.36,3.36,0,0,1-3.63,3,3.51,3.51,0,0,1-3.56-2.91A18.18,18.18,0,0,1,23,18.47a3.33,3.33,0,0,1,3.62-2.55,3.29,3.29,0,0,1,3.43,3A25.86,25.86,0,0,1,30.08,24.27Z"/><path class="cls-1" d="M55.66,30.52c-.29-1.05-.62-2.08-.93-3.08l-.3-1.11S46.69,30,45.48,23a15.35,15.35,0,0,1,.09-3.52,3.79,3.79,0,0,1,3.73-3.53,8.6,8.6,0,0,1,2.15.09c1,.16,1.9.45,2.95.71.36-1.12.74-2.22,1.08-3.33.06-.18.11-.33.14-.46h0l.18-.67a.85.85,0,0,0-.29-.27h0a3.78,3.78,0,0,0-1-.45L54,11.36l-.28-.08h0a16.16,16.16,0,0,0-6.24-.41C43,11.35,40,14,39.11,18.34a16.94,16.94,0,0,0,.09,6.91,8.39,8.39,0,0,0,6.24,6.65,15.16,15.16,0,0,0,6.73.33,20.47,20.47,0,0,0,3.29-1l.37-.13-.17-.59Z"/><path class="cls-1" d="M76,22.33A36.71,36.71,0,0,0,75.82,18,7.75,7.75,0,0,0,69,11a17.91,17.91,0,0,0-4.51-.07c-4.08.39-7.17,2.93-7.81,6.76a24.21,24.21,0,0,0-.12,7.11c.47,3.5,2.17,5.74,5.13,6.81h0c1.34.4,7.94,2.12,13.75-.8L75.28,30h0c-.27-1.14-.59-2.27-.9-3.41l0-.11-.33.11h0c-.25.06-.5.14-.75.22l-.14.05a26,26,0,0,1-3.47.72,18.16,18.16,0,0,1-3.38,0c-1.84-.3-3.26-1.29-3.19-3.63H75.23l.81,0V22.33Zm-6-2.85H62.93c0-1.42.22-2.75,1.48-3.55a4,4,0,0,1,4.21-.12C70,16.58,70.12,18,70.08,19.48Z"/><polygon class="cls-1" points="166.27 11.31 159.25 11.31 153.15 20.84 153.15 0.95 153.15 0.82 153.15 0.02 146.53 0.82 146.53 32.02 153.15 32.02 153.15 22.47 159.25 32.03 166.27 32.03 159.65 21.65 166.27 11.31"/><path class="cls-1" d="M137.43,11.17a13.21,13.21,0,0,0-6.92,0A8.31,8.31,0,0,0,124,17.72a21.89,21.89,0,0,0-.38,5.83,8.9,8.9,0,0,0,7.23,8.56l.18,0h0l.49.09h.17a6.86,6.86,0,0,0,.71.09,13.55,13.55,0,0,0,2.78,0h.15a9.07,9.07,0,0,0,8.68-7.23,15.61,15.61,0,0,0,0-7A8.7,8.7,0,0,0,137.43,11.17ZM137.7,24c0,.14,0,.28-.07.41a3.74,3.74,0,0,1-7.37-.39,24.83,24.83,0,0,1,0-4.48,3.77,3.77,0,0,1,7.41-.79A20,20,0,0,1,137.7,24Z"/></g></g></svg>